/* XPM */
static char * untangle_client_xpm[] = {
"32 32 261 2",
"  	c None",
". 	c #94D07F",
"+ 	c #91CF7C",
"@ 	c #8BCC74",
"# 	c #87CA6F",
"$ 	c #86CA6E",
"% 	c #86CA6F",
"& 	c #83C96B",
"* 	c #82C86A",
"= 	c #7FC866",
"- 	c #79C55E",
"; 	c #93D07E",
"> 	c #8CCD76",
", 	c #82C869",
"' 	c #7FC766",
") 	c #7EC765",
"! 	c #7EC764",
"~ 	c #7DC663",
"{ 	c #79C45E",
"] 	c #71C154",
"^ 	c #6ABE4C",
"/ 	c #92CF7D",
"( 	c #88CB71",
"_ 	c #74C259",
": 	c #72C256",
"< 	c #71C155",
"[ 	c #6FC152",
"} 	c #6ABD4C",
"| 	c #63B446",
"1 	c #5BA740",
"2 	c #8FCE79",
"3 	c #8CCD75",
"4 	c #73C257",
"5 	c #6BBE4D",
"6 	c #68BE4B",
"7 	c #68BD4A",
"8 	c #66BA48",
"9 	c #5FAE43",
"0 	c #58A23E",
"a 	c #78C45C",
"b 	c #6CBF4F",
"c 	c #67BD49",
"d 	c #5EAC42",
"e 	c #53993B",
"f 	c #4E8F38",
"g 	c #80C868",
"h 	c #74C258",
"i 	c #4C8C36",
"j 	c #89CB71",
"k 	c #7CC663",
"l 	c #69BE4C",
"m 	c #52973A",
"n 	c #4B8935",
"o 	c #D1EBC8",
"p 	c #A1D68F",
"q 	c #6FC052",
"r 	c #64BC46",
"s 	c #66BD48",
"t 	c #4A8734",
"u 	c #EBF6E6",
"v 	c #FEFFFD",
"w 	c #B5DFA6",
"x 	c #67BD48",
"y 	c #77C45C",
"z 	c #A1D68E",
"A 	c #87CB6F",
"B 	c #9AD386",
"C 	c #E4F3DE",
"D 	c #F3FAF0",
"E 	c #92D07C",
"F 	c #65BC47",
"G 	c #6EC051",
"H 	c #C8E7BC",
"I 	c #FCFEFB",
"J 	c #ECF7E7",
"K 	c #70C154",
"L 	c #95D180",
"M 	c #FCFEFA",
"N 	c #D5EDCC",
"O 	c #64BB45",
"P 	c #94D07E",
"Q 	c #F7FBF4",
"R 	c #FDFEFC",
"S 	c #FFFFFE",
"T 	c #ABDB9B",
"U 	c #84CA6D",
"V 	c #7CC662",
"W 	c #E8F5E3",
"X 	c #F9FDF8",
"Y 	c #73C258",
"Z 	c #61BA42",
"` 	c #B1DDA2",
" .	c #DCEFD4",
"..	c #F5FBF2",
"+.	c #C9E8BE",
"@.	c #6BBF4D",
"#.	c #7BC561",
"$.	c #C5E6B9",
"%.	c #90CE79",
"&.	c #5EB93E",
"*.	c #9DD489",
"=.	c #E2F2DC",
"-.	c #E1F2DA",
";.	c #75C35A",
">.	c #6DC050",
",.	c #B6DFA7",
"'.	c #A2D68F",
").	c #62BB43",
"!.	c #E6F4E1",
"~.	c #80C867",
"{.	c #D9EED1",
"].	c #ECF7E8",
"^.	c #83C96A",
"/.	c #CBE9C1",
"(.	c #DEF1D7",
"_.	c #A3D791",
":.	c #FAFDF8",
"<.	c #BCE2AF",
"[.	c #6DBF50",
"}.	c #F7FBF5",
"|.	c #EFF8EC",
"1.	c #69BD4B",
"2.	c #C8E7BD",
"3.	c #A8D997",
"4.	c #D8EED0",
"5.	c #6FC053",
"6.	c #9FD58B",
"7.	c #F8FCF6",
"8.	c #BBE1AE",
"9.	c #78C45D",
"0.	c #DDF0D6",
"a.	c #62BA42",
"b.	c #B7E0A9",
"c.	c #A2D790",
"d.	c #D2ECC9",
"e.	c #9DD48A",
"f.	c #F7FCF5",
"g.	c #C5E6BA",
"h.	c #8FCE78",
"i.	c #C9E7BE",
"j.	c #A2D78F",
"k.	c #B1DDA1",
"l.	c #7BC560",
"m.	c #E9F6E4",
"n.	c #E1F2DB",
"o.	c #CCE9C2",
"p.	c #68BD4B",
"q.	c #79C55F",
"r.	c #72C155",
"s.	c #66BC48",
"t.	c #90CF7A",
"u.	c #EFF8EB",
"v.	c #D3ECCA",
"w.	c #A7D895",
"x.	c #C0E3B2",
"y.	c #8CCD74",
"z.	c #F6FBF4",
"A.	c #CDE9C3",
"B.	c #A5D893",
"C.	c #BBE2AE",
"D.	c #63BB44",
"E.	c #E3F3DD",
"F.	c #D4ECCB",
"G.	c #81C868",
"H.	c #8BCD74",
"I.	c #BDE2AF",
"J.	c #A7D996",
"K.	c #AFDDA0",
"L.	c #E2F3DC",
"M.	c #F9FCF7",
"N.	c #D7EECF",
"O.	c #65BC46",
"P.	c #4A8835",
"Q.	c #EDF7E8",
"R.	c #DAEFD3",
"S.	c #92CF7C",
"T.	c #72C156",
"U.	c #C6E6BB",
"V.	c #96D181",
"W.	c #F1F9EE",
"X.	c #F5FBF3",
"Y.	c #6BBF4E",
"Z.	c #B4DEA5",
"`.	c #C1E4B5",
" +	c #E7F5E2",
".+	c #52983A",
"++	c #4C8B36",
"@+	c #84CA6C",
"#+	c #E5F4DF",
"$+	c #F2F9EE",
"%+	c #F7FCF6",
"&+	c #60BA40",
"*+	c #E0F2D9",
"=+	c #EEF8EB",
"-+	c #AFDC9F",
";+	c #BBE1AD",
">+	c #64BA46",
",+	c #5CAB40",
"'+	c #509738",
")+	c #488932",
"!+	c #7DC763",
"~+	c #DCF0D5",
"{+	c #73C256",
"]+	c #D2EBC9",
"^+	c #A9DA98",
"/+	c #EEF8EA",
"(+	c #D1EBC7",
"_+	c #EAF6E5",
":+	c #72BF56",
"<+	c #70B458",
"[+	c #70A55E",
"}+	c #6E9A5F",
"|+	c #66BC47",
"1+	c #FDFEFB",
"2+	c #B2DDA2",
"3+	c #D6EDCE",
"4+	c #FAFDF9",
"5+	c #F0F9ED",
"6+	c #EDF7E9",
"7+	c #F1F6EE",
"8+	c #DDE4DB",
"9+	c #BAC5B6",
"0+	c #ACB4AA",
"a+	c #BCE2AE",
"b+	c #C4E5B8",
"c+	c #BEE2B1",
"d+	c #A8D996",
"e+	c #8BCA75",
"f+	c #7EBB6A",
"g+	c #639F4E",
"h+	c #5D924B",
"i+	c #61BB43",
"j+	c #84C96C",
"k+	c #81C869",
"l+	c #63B546",
"m+	c #59A43F",
"n+	c #4E8F37",
"o+	c #478433",
"p+	c #7DC664",
"q+	c #61B144",
"r+	c #559C3C",
"s+	c #468132",
"t+	c #64B946",
"u+	c #61B145",
"v+	c #5DAB42",
"w+	c #579F3D",
"x+	c #447D30",
"y+	c #69BE4B",
"z+	c #5AA53F",
"A+	c #58A33E",
"B+	c #58A13E",
"C+	c #57A13E",
"D+	c #549B3C",
"E+	c #457E31",
"F+	c #41782E",
"G+	c #5AA640",
"H+	c #519439",
"I+	c #4E9038",
"J+	c #4B8B36",
"K+	c #488533",
"L+	c #447E31",
"    . + @ # $ $ # $ $ $ % % $ $ $ $ $ $ $ $ $ $ $ & * = -       ",
"    ; > , ' ) ) ) ) ) ) ) ) ) ) ) ) ) ) ) ) ) ) ) ! ~ { ] ^     ",
"  / ( ! _ : < < < < < < < < < < < < < < < < < < < < ] [ } | 1   ",
"2 3 ! 4 5 6 7 7 7 7 7 7 7 7 7 7 7 7 7 7 7 7 7 7 7 7 7 7 8 9 0   ",
"@ & a b c c c c c c c c c c c c c c c c c c c c c c c c 8 d e f ",
"# g h ^ c c c c c c c c c c c c c c c c c c c c c c c c 8 d e i ",
"j k 4 l c c c c c c c c c c c c c c c c c c c c c c c c 8 d m n ",
"o p q 6 c c c c r s c c c c c c c c c c c c c c c c c c 8 d m t ",
"u v w b c c x y z A s c c c c c c c c c c c c c c c c c 8 d m t ",
"B C D E F c G H I J K s c c c c c c c c c c c c c c c c 8 d m n ",
"g L M N O s P Q R S T F c c c c c c c c c c c c c c c c 8 d m n ",
"U V W X Y Z ` v  ...+.@.c c c c c c c c c c c c c c c c 8 d m n ",
"# #.$.S %.&.o S *.=.-.;.c s >.4 s c c c c c c c c c c c 8 d m t ",
"$ V ,.S '.).!.S ~.{.].^.s ^ /.(.A s c c c c c c c c c c 8 d m t ",
"$ ) _.:.<.[.}.|.1.2.Q E r 3.S S 4.5.c c c c c c c c c c 8 d m t ",
"$ ) 6.7.8.9.S 0.a.b.I c.^ d.R R J ^.c c c c c c c c c c 8 d m t ",
"$ ) e.f.g.h.S i.&.j.S k.l.m.n.o.M z r c p.q.r.s.c c c c 8 d m t ",
"$ ) t.u.v.w.S b.&.h.S x.y.z.A.B.S C.).D.B.E.F.G.c c c c 8 d m t ",
"$ ) H.].N I.I z ).= S F.J.R K.#.R L.D.~.M M.R N.O.x c c 8 d m P.",
"$ ) 3 Q.R.o z.S.O.T.M =.U.S V.7 W.X.Y.Z.S `. +M ' O.c c 8 d .+++",
"$ ) @+#+$+$+u G.c r  +%+W.R y &+/.S B.*+=+G.-+R ;+c c s >+,+'+)+",
"$ ) !+~+R R  .{+c ).]+S S m.c D.^+R /+M.(+b G._+ +~.F G :+<+[+}+",
"% ) : -+S S ,.|+c F c.:.1+2+).c _ 3+S 4+2 O.|+t.5+..6+..7+8+9+0+",
"% ) : 4 w I.y s c c 4 a+b+- s c |+~.c+J.c x x |+3 B.d+_.e+f+g+h+",
"$ ) 4 ^ D.i+c c c c s ).).s c c c c Z D.c c c c s r r r 8 d m t ",
"j+) 4 ^ c c c c c c c c c c c c c c c c c c c c c c c c 8 d m t ",
"k+~ 4 l c c c c c c c c c c c c c c c c c c c c c c c c l+m+n+o+",
"p+{ K 6 c c c c c c c c c c c c c c c c c c c c c c c F q+r+P.s+",
"  K 7 t+u+u+u+u+u+u+u+u+u+u+u+u+u+u+u+u+u+u+u+u+u+u+q+v+w+i x+  ",
"  y+| d z+A+B+B+B+B+B+B+B+B+B+B+B+B+B+B+B+B+B+B+B+B+C+D+i E+F+  ",
"    G+r+H+I+n+n+n+n+n+n+n+n+n+n+n+n+n+n+n+n+n+n+n+n+J+K+L+F+    ",
"                                                                "};
